<svg width="20" height="20" viewBox="0 0 20 20" fill="none" xmlns="http://www.w3.org/2000/svg">
<g id="Icon/shopping_basket">
<path id="Vector" d="M18.3333 7.90846H14.3417L10.6917 2.4418C10.5333 2.20846 10.2667 2.0918 10 2.0918C9.73333 2.0918 9.46666 2.20846 9.30833 2.45013L5.65833 7.90846H1.66667C1.20833 7.90846 0.833332 8.28346 0.833332 8.7418C0.833332 8.8168 0.841665 8.8918 0.866665 8.9668L2.98333 16.6918C3.175 17.3918 3.81667 17.9085 4.58333 17.9085H15.4167C16.1833 17.9085 16.825 17.3918 17.025 16.6918L19.1417 8.9668L19.1667 8.7418C19.1667 8.28346 18.7917 7.90846 18.3333 7.90846ZM10 4.40846L12.3333 7.90846H7.66666L10 4.40846ZM15.4167 16.2418L4.59167 16.2501L2.75833 9.57513H17.25L15.4167 16.2418ZM10 11.2418C9.08333 11.2418 8.33333 11.9918 8.33333 12.9085C8.33333 13.8251 9.08333 14.5751 10 14.5751C10.9167 14.5751 11.6667 13.8251 11.6667 12.9085C11.6667 11.9918 10.9167 11.2418 10 11.2418Z" fill="#8B96A5"/>
</g>
</svg>
