<svg width="22" height="22" viewBox="0 0 22 22" fill="none" xmlns="http://www.w3.org/2000/svg">
<g id="Icon/shopping_cart">
<path id="Vector" d="M15.1674 11.9163C15.8549 11.9163 16.4599 11.5405 16.7716 10.9722L20.0533 5.02301C20.3924 4.41801 19.9524 3.66634 19.2558 3.66634H5.68909L4.82743 1.83301H1.82993V3.66634H3.66326L6.96326 10.6238L5.72576 12.8605C5.05659 14.0888 5.93659 15.583 7.32993 15.583H18.3299V13.7497H7.32993L8.33826 11.9163H15.1674ZM6.55993 5.49967H17.6974L15.1674 10.083H8.73243L6.55993 5.49967ZM7.32993 16.4997C6.32159 16.4997 5.50576 17.3247 5.50576 18.333C5.50576 19.3413 6.32159 20.1663 7.32993 20.1663C8.33826 20.1663 9.16326 19.3413 9.16326 18.333C9.16326 17.3247 8.33826 16.4997 7.32993 16.4997ZM16.4966 16.4997C15.4883 16.4997 14.6724 17.3247 14.6724 18.333C14.6724 19.3413 15.4883 20.1663 16.4966 20.1663C17.5049 20.1663 18.3299 19.3413 18.3299 18.333C18.3299 17.3247 17.5049 16.4997 16.4966 16.4997Z" fill="#0D6EFD"/>
</g>
</svg>
